<svg width="22" height="40" viewBox="0 0 22 40" fill="none" xmlns="http://www.w3.org/2000/svg">
<path d="M21.0795 29.1654L12.6682 19.9749L21.0795 10.7855C21.3437 10.4961 21.4785 10.1105 21.4503 9.7195C21.4221 9.32812 21.2348 8.96529 20.9309 8.71646L10.7058 0.32611C10.2773 -0.0257154 9.68472 -0.0996072 9.18305 0.137362C8.68137 0.373316 8.36168 0.876748 8.36168 1.43027V15.2702L2.49181 8.85628C1.95855 8.27326 1.05123 8.23222 0.466896 8.76476C-0.11744 9.29729 -0.158575 10.2016 0.375163 10.7851L8.36168 19.5117V20.4384L0.375241 29.1654C-0.158966 29.7479 -0.117831 30.6528 0.466974 31.1857C1.05178 31.7187 1.95823 31.6777 2.49189 31.0937L8.36129 24.6808V38.5198C8.36129 39.0727 8.68145 39.5766 9.18266 39.8131C9.37762 39.9047 9.58689 39.95 9.79475 39.95C10.1211 39.95 10.4441 39.8394 10.7059 39.6249L20.9309 31.2343C21.2348 30.9851 21.4221 30.6222 21.4503 30.2313C21.4784 29.8404 21.3447 29.4547 21.0795 29.1654ZM11.2285 4.45836L17.9441 9.96841L11.2285 17.3062V4.45836ZM11.2285 35.4916V22.6442L17.9441 29.9815L11.2285 35.4916Z" fill="#C4C4C4"/>
</svg>
